<svg xmlns="http://www.w3.org/2000/svg" width="500" height="515.067" viewBox="0 0 500 515.067"><g fill="none" fill-rule="nonzero"><path fill="#F90" d="M438.547 424.038C225.88 525.236 93.873 440.588 9.425 389.14c-5.185-3.29-14.158.798-6.381 9.572C31.16 432.81 123.386 515.067 243.827 515.067c120.441 0 192.128-65.705 201.101-77.17 8.973-11.367 2.692-17.548-6.38-13.86Zm59.722-33.002c-5.683-7.478-34.696-8.774-52.942-6.58-18.246 2.193-45.764 13.36-43.37 20.04 1.196 2.492 3.688 1.396 16.25.299 12.563-1.296 47.858-5.683 55.236 3.888 7.378 9.671-11.266 55.834-14.656 63.212-3.29 7.478 1.296 9.372 7.478 4.387 6.082-4.985 17.149-17.747 24.527-35.893 7.378-18.246 11.864-43.67 7.477-49.353Z"/><path fill="#000" d="M258.483 0c33.201 0 76.473 8.774 102.695 33.9 33.2 31.007 30.01 72.284 30.01 117.25v106.184c0 27.438 9.808 41.677 20.48 56.097l.747 1.007.748 1.008.75 1.01.75 1.015c.75 1.016 1.5 2.04 2.249 3.075 4.387 6.181 5.384 13.56-.2 18.146-13.859 11.565-38.685 33.2-52.244 45.265l-.2-.3c-4.486 3.989-11.067 4.288-16.152 1.596-22.632-18.744-26.62-27.518-39.083-45.465-37.389 38.187-63.81 49.553-112.366 49.553-57.329 0-101.996-35.395-101.996-106.184 0-55.335 30.01-93.023 72.684-111.368 36.99-16.252 88.636-19.143 128.218-23.73v-8.774c0-16.251 1.196-35.394-8.276-49.353-8.375-12.562-24.227-17.747-38.286-17.747-26.022 0-49.153 13.36-54.836 40.978-1.197 6.182-5.683 12.164-11.765 12.463l-66.203-7.079c-5.583-1.296-11.665-5.783-10.17-14.257C121.292 24.128 193.677 0 258.483 0Zm37.09 202.896c-49.253 0-101.299 10.469-101.299 68.596 0 29.412 15.155 49.353 41.377 49.353 19.143 0 36.292-11.865 47.16-31.008 13.46-23.63 12.762-45.764 12.762-72.285Z"/></g></svg>