<?xml version="1.0" encoding="UTF-8" standalone="no"?>
<svg
   version="1.1"
   width="52.799999"
   height="52.900002"
   viewBox="0 0 52.8 52.9"
   id="svg1628"
   sodipodi:docname="egroupware.svg"
   inkscape:version="1.1.2 (0a00cf5339, 2022-02-04)"
   xmlns:inkscape="http://www.inkscape.org/namespaces/inkscape"
   xmlns:sodipodi="http://sodipodi.sourceforge.net/DTD/sodipodi-0.dtd"
   xmlns="http://www.w3.org/2000/svg"
   xmlns:svg="http://www.w3.org/2000/svg">
  <defs
     id="defs1632" />
  <sodipodi:namedview
     id="namedview1630"
     pagecolor="#ffffff"
     bordercolor="#666666"
     borderopacity="1.0"
     inkscape:pageshadow="2"
     inkscape:pageopacity="0.0"
     inkscape:pagecheckerboard="0"
     showgrid="false"
     inkscape:zoom="5.1879477"
     inkscape:cx="152.27601"
     inkscape:cy="33.732028"
     inkscape:current-layer="svg1628" />
  <path
     d="m 19.6,42.3 c 3,-1.7 6.5,-1.9 9.5,-0.9 l 2.7,-7.1 C 30,33.5 28.5,32.2 27.5,30.4 27.2,29.8 27,29.3 26.8,28.7 L 8.6,30.9 4.3,40.8 c 2.4,3.7 5.7,6.7 9.5,8.8 0.8,-3 2.8,-5.7 5.8,-7.3 z M 43.8,28.8 c -0.7,2.1 -2.1,4 -4.2,5.2 -1.3,0.7 -2.8,1.1 -4.2,1.1 -0.5,0 -0.9,0 -1.4,-0.1 l -2.8,7.4 c 2,1.1 3.7,2.7 4.8,4.8 0.6,1.1 1,2.3 1.3,3.5 8,-3.6 13.8,-10.9 15.3,-19.8 z M 20.1,15.1 c -0.3,0.2 -0.5,0.4 -0.8,0.6 -0.9,0.5 -1.8,0.7 -2.8,0.7 -0.5,0 -1,-0.1 -1.5,-0.2 l -5.4,12.4 16.8,-2 c -0.1,-1.8 0.4,-3.5 1.3,-5 z M 6,31.2 0.6,31.9 c 0.5,2.3 1.3,4.5 2.3,6.5 z"
     fill="#6093b8"
     id="path1624" />
  <path
     d="m 21.6,7.8 c 1,1.8 0.9,3.9 0,5.6 l 7.6,6.4 c 0.5,-0.5 1.2,-1 1.9,-1.4 1.5,-0.8 3.2,-1.2 4.8,-1.1 V 1.6 C 32.4,0.7 29.1,0 26.4,0 H 25 l -4.7,6.2 c 0.5,0.5 0.9,1 1.3,1.6 z m 3.8,35.3 c -1.6,0 -3.2,0.4 -4.7,1.2 -2.6,1.4 -4.2,3.8 -4.8,6.4 3.2,1.4 6.8,2.2 10.6,2.2 3,0 5.9,-0.5 8.6,-1.5 -0.2,-1.1 -0.5,-2.2 -1.1,-3.3 -1.8,-3.2 -5.2,-5 -8.6,-5 z M 13.2,5.8 C 13.4,5.7 13.6,5.5 13.7,5.4 15.2,4.6 16.8,4.5 18.3,5 L 21.9,0.3 C 17.9,1 14.2,2.6 11.1,4.8 Z m 5,7.9 C 19.9,12.8 20.6,10.6 19.6,8.9 19,7.7 17.7,7.1 16.5,7.1 c -0.6,0 -1.2,0.1 -1.7,0.4 -1.7,0.9 -2.4,3.1 -1.4,4.8 1,1.7 3.1,2.3 4.8,1.4 z m 19.8,4 c 2.1,0.7 3.9,2.1 5,4.2 0.8,1.5 1.1,3.1 1.1,4.7 l 8.6,2 c 0,-0.7 0.1,-1.4 0.1,-2.1 V 8 C 52.8,8 45.6,4.7 38,2.3 Z M 38.5,32 c 3.2,-1.8 4.4,-5.8 2.6,-9 -1.2,-2.2 -3.5,-3.4 -5.8,-3.4 -1.1,0 -2.2,0.3 -3.2,0.8 -3.2,1.8 -4.4,5.8 -2.6,9 0.9,1.6 2.3,2.7 4,3.2 1.6,0.4 3.4,0.2 5,-0.6 z M 11.4,13.3 c -1,-1.9 -0.9,-4 0.1,-5.7 L 9.1,6.5 C 3.5,11.4 0,18.5 0,26.4 c 0,1.1 0.1,2.2 0.2,3.2 L 7,28.8 13,15.1 c -0.6,-0.4 -1.2,-1 -1.6,-1.8 z"
     fill="#4177a2"
     id="path1626"
     sodipodi:nodetypes="ccccccscccsccsccsccccccscscssccccscccccscscccccscccc" />
</svg>
