<?xml version="1.0" encoding="UTF-8" standalone="no"?>
<svg
   viewBox="0 0 24 23.408674"
   version="1.1"
   width="72"
   height="70.226021"
   id="svg1989"
   sodipodi:docname="github.svg"
   inkscape:version="1.1.2 (0a00cf5339, 2022-02-04)"
   xmlns:inkscape="http://www.inkscape.org/namespaces/inkscape"
   xmlns:sodipodi="http://sodipodi.sourceforge.net/DTD/sodipodi-0.dtd"
   xmlns="http://www.w3.org/2000/svg"
   xmlns:svg="http://www.w3.org/2000/svg">
  <defs
     id="defs1993" />
  <sodipodi:namedview
     id="namedview1991"
     pagecolor="#ffffff"
     bordercolor="#666666"
     borderopacity="1.0"
     inkscape:pageshadow="2"
     inkscape:pageopacity="0.0"
     inkscape:pagecheckerboard="0"
     showgrid="false"
     inkscape:zoom="7.4583333"
     inkscape:cx="35.932961"
     inkscape:cy="35.932961"
     inkscape:current-layer="svg1989" />
  <g
     id="surface1"
     transform="translate(-4,-4)">
    <path
       style="fill-rule:evenodd"
       d="M 16,4 C 9.371094,4 4,9.371094 4,16 c 0,5.300781 3.4375,9.800781 8.207031,11.386719 0.601563,0.109375 0.820313,-0.257813 0.820313,-0.578125 0,-0.285156 -0.01172,-1.039063 -0.01563,-2.039063 C 9.671875,25.492188 8.96875,23.160156 8.96875,23.160156 8.421875,21.773438 7.636719,21.402344 7.636719,21.402344 6.546875,20.660156 7.71875,20.675781 7.71875,20.675781 c 1.203125,0.08594 1.835938,1.234375 1.835938,1.234375 1.070312,1.835938 2.808593,1.304688 3.492187,1 0.109375,-0.777343 0.421875,-1.304687 0.761719,-1.605468 C 11.144531,21.003906 8.34375,19.972656 8.34375,15.375 c 0,-1.3125 0.46875,-2.382812 1.234375,-3.222656 -0.121094,-0.300781 -0.535156,-1.523438 0.117188,-3.175781 0,0 1.007812,-0.320313 3.300781,1.230468 C 13.953125,9.941406 14.980469,9.808594 16,9.804688 c 1.019531,0.00391 2.046875,0.136718 3.003906,0.402343 2.292969,-1.550781 3.296875,-1.230468 3.296875,-1.230468 0.65625,1.652343 0.246094,2.875 0.121094,3.175781 0.769531,0.839844 1.230469,1.910156 1.230469,3.222656 0,4.609375 -2.804688,5.621094 -5.476563,5.921875 0.429688,0.367188 0.8125,1.101563 0.8125,2.21875 0,1.605469 -0.01172,2.898438 -0.01172,3.292969 0,0.320312 0.214843,0.695312 0.824218,0.578125 C 24.566406,25.796875 28,21.300781 28,16 28,9.371094 22.628906,4 16,4 Z"
       id="path1986" />
  </g>
</svg>
