<?xml version="1.0" encoding="UTF-8" standalone="no"?>
<!--?xml version="1.0" encoding="utf-8"?-->

<!-- Svg Vector Icons : http://www.onlinewebfonts.com/icon -->

<svg
   version="1.1"
   x="0px"
   y="0px"
   viewBox="0 0 236 236"
   enable-background="new 0 0 256 256"
   xml:space="preserve"
   id="svg1031"
   sodipodi:docname="kerberos.svg"
   width="236"
   height="236"
   inkscape:version="1.1.2 (0a00cf5339, 2022-02-04)"
   xmlns:inkscape="http://www.inkscape.org/namespaces/inkscape"
   xmlns:sodipodi="http://sodipodi.sourceforge.net/DTD/sodipodi-0.dtd"
   xmlns="http://www.w3.org/2000/svg"
   xmlns:svg="http://www.w3.org/2000/svg"><defs
   id="defs1035" /><sodipodi:namedview
   id="namedview1033"
   pagecolor="#ffffff"
   bordercolor="#666666"
   borderopacity="1.0"
   inkscape:pageshadow="2"
   inkscape:pageopacity="0.0"
   inkscape:pagecheckerboard="0"
   showgrid="false"
   inkscape:zoom="2.796875"
   inkscape:cx="33.251397"
   inkscape:cy="117.98883"
   inkscape:current-layer="svg1031" />
<metadata
   id="metadata1023"> Svg Vector Icons : http://www.onlinewebfonts.com/icon </metadata>
<g
   id="g1029"
   transform="translate(-10,-10)"
   style="fill:#eb5424;fill-opacity:1"><g
     id="g1027"
     style="fill:#eb5424;fill-opacity:1"><path
       fill="#35417b"
       data-title="Layer 0"
       xs="0"
       d="M 230.7,25.3 C 220.5,15.1 207.2,10 193.8,10 180.5,10 167.1,15.1 157,25.3 l -21.1,21.1 c -17.7,17.6 -20,44.8 -7.1,65 l -17.5,17.5 c -8.5,-5.5 -18.3,-8.2 -28.1,-8.2 -13.3,0 -26.7,5.1 -36.9,15.3 l -21,21 c -20.4,20.4 -20.4,53.4 0,73.8 10.2,10.1 23.5,15.2 36.9,15.2 13.3,0 26.7,-5.1 36.9,-15.2 l 21,-21.1 c 17.7,-17.6 20,-44.7 7.1,-65 l 17.5,-17.5 c 8.6,5.5 18.3,8.2 28.1,8.2 13.4,0 26.7,-5.1 36.9,-15.3 l 21,-21.1 c 20.4,-20.3 20.4,-53.3 0,-73.7 m -126.4,168.6 -21,21 c -5.7,5.7 -13.1,8.8 -21.1,8.8 -8,0 -15.5,-3.1 -21.1,-8.8 -11.6,-11.6 -11.6,-30.5 0,-42.1 l 21.1,-21.1 c 5.6,-5.6 13.1,-8.7 21,-8.7 4,0 8,0.8 11.6,2.4 L 78,162.2 c -4.4,4.4 -4.4,11.4 0,15.8 4.3,4.4 11.4,4.4 15.8,0 l 16.9,-16.9 c 1.5,3.7 2.4,7.6 2.4,11.7 -0.1,7.9 -3.2,15.4 -8.8,21.1 M 214.9,83.2 193.8,104.3 c -5.6,5.6 -13.1,8.7 -21,8.7 -4,0 -8,-0.8 -11.6,-2.4 l 22.2,-22.2 c 4.4,-4.4 4.4,-11.4 0,-15.8 -4.4,-4.4 -11.5,-4.4 -15.8,0 L 145.4,94.7 C 140.9,83.8 142.9,70.8 151.8,62 l 21.1,-21 c 5.6,-5.7 13.1,-8.7 21,-8.7 v 0 c 8,0 15.4,3.1 21.1,8.7 11.5,11.7 11.5,30.6 -0.1,42.2"
       id="path1025"
       style="fill:#eb5424;fill-opacity:1" /></g></g>
</svg>
