<?xml version="1.0" encoding="UTF-8" standalone="no"?>
<svg
   width="225.31641"
   zoomAndPan="magnify"
   viewBox="0 0 168.89717 141.85556"
   height="189.14075"
   preserveAspectRatio="xMidYMid meet"
   version="1.0"
   id="svg267"
   sodipodi:docname="keycloak.svg"
   inkscape:version="1.1.2 (0a00cf5339, 2022-02-04)"
   xmlns:inkscape="http://www.inkscape.org/namespaces/inkscape"
   xmlns:sodipodi="http://sodipodi.sourceforge.net/DTD/sodipodi-0.dtd"
   xmlns="http://www.w3.org/2000/svg"
   xmlns:svg="http://www.w3.org/2000/svg">
  <sodipodi:namedview
     id="namedview269"
     pagecolor="#ffffff"
     bordercolor="#666666"
     borderopacity="1.0"
     inkscape:pageshadow="2"
     inkscape:pageopacity="0.0"
     inkscape:pagecheckerboard="0"
     showgrid="false"
     inkscape:zoom="3.7066667"
     inkscape:cx="108.72302"
     inkscape:cy="94.42446"
     inkscape:current-layer="svg267" />
  <defs
     id="defs181">
    <clipPath
       id="eabf2adf1b">
      <path
         d="M 31,41 H 199.94141 V 184 H 31 Z m 0,0"
         clip-rule="nonzero"
         id="path163" />
    </clipPath>
    <clipPath
       id="92cb2ea171">
      <path
         d="m 31,77 h 168.94141 v 72 H 31 Z m 0,0"
         clip-rule="nonzero"
         id="path166" />
    </clipPath>
    <clipPath
       id="07d58cf92a">
      <path
         d="m 186,113 h 13.94141 v 18 H 186 Z m 0,0"
         clip-rule="nonzero"
         id="path169" />
    </clipPath>
    <clipPath
       id="6edfb7a027">
      <path
         d="m 182,115 h 17.94141 v 34 H 182 Z m 0,0"
         clip-rule="nonzero"
         id="path172" />
    </clipPath>
    <clipPath
       id="8d23b75b79">
      <path
         d="m 186,97 h 13.94141 v 19 H 186 Z m 0,0"
         clip-rule="nonzero"
         id="path175" />
    </clipPath>
    <clipPath
       id="29748699ff">
      <path
         d="m 175,77 h 24.94141 v 39 H 175 Z m 0,0"
         clip-rule="nonzero"
         id="path178" />
    </clipPath>
  </defs>
  <g
     clip-path="url(#eabf2adf1b)"
     id="g185"
     transform="translate(-31.014107,-41.734329)">
    <path
       fill="#4d4d4d"
       d="m 174.86328,77.195312 c -0.46875,0.0039 -0.90234,-0.242187 -1.13281,-0.644531 L 154.02344,42.378906 c -0.2461,-0.402344 -0.6836,-0.648437 -1.15625,-0.644531 H 72.472656 c -0.46875,-0.0039 -0.902344,0.242187 -1.136718,0.644531 L 50.867188,77.839844 31.824219,112.01953 c -0.230469,0.40625 -0.230469,0.90235 0,1.30469 l 19.042969,34.14453 20.46875,35.47656 c 0.234374,0.40235 0.667968,0.64844 1.132812,0.64453 h 80.39844 c 0.46875,0 0.90234,-0.24218 1.14453,-0.64453 l 19.73047,-34.14844 c 0.23437,-0.40234 0.66797,-0.64843 1.13281,-0.64453 h 24.53906 c 0.8125,0 1.47266,-0.66015 1.47266,-1.47265 V 78.667969 c 0,-0.8125 -0.66016,-1.472657 -1.47266,-1.472657 h -24.5625 z m 0,0"
       fill-opacity="1"
       fill-rule="nonzero"
       id="path183" />
  </g>
  <g
     clip-path="url(#92cb2ea171)"
     id="g189"
     transform="translate(-31.014107,-41.734329)">
    <path
       fill="#e2e2e2"
       d="m 50.136719,79.121094 -18.828125,33.554686 2.003906,4.41016 18.707031,30.5625 12.21875,0.5 97.996089,-0.004 h 20.3086 l 13.05469,-3.30469 5.28515,-14.60156 0.004,-16.83984 V 97.804688 l -1.47266,-20.609376 h -24.55078 l -7.54297,0.0039 H 75.75 l -25.613281,1.921875"
       fill-opacity="1"
       fill-rule="nonzero"
       id="path187" />
  </g>
  <path
     fill="#e1e1e1"
     d="m 24.321831,67.355511 -22.0234375,7.9961 -2.167969,-3.75 c -0.253906,-0.4375 -0.253906,-0.8711 0,-1.3086 L 10.103081,53.023483 Z m 0,0"
     fill-opacity="1"
     fill-rule="nonzero"
     id="path191" />
  <g
     clip-path="url(#07d58cf92a)"
     id="g195"
     transform="translate(-31.014107,-41.734329)">
    <path
       fill="#c8c8c8"
       d="m 186.36719,115.47266 14.51953,-2.07422 v 16.83984 z m 0,0"
       fill-opacity="1"
       fill-rule="nonzero"
       id="path193" />
  </g>
  <g
     clip-path="url(#6edfb7a027)"
     id="g199"
     transform="translate(-31.014107,-41.734329)">
    <path
       fill="#c2c2c2"
       d="m 186.36719,115.47266 14.51562,14.76562 v 16.44531 c 0,0.19141 -0.0352,0.37891 -0.10937,0.55469 -0.0742,0.17969 -0.17578,0.33594 -0.3125,0.47266 -0.13672,0.13672 -0.29297,0.24218 -0.46875,0.3164 -0.17969,0.0781 -0.36328,0.11328 -0.55469,0.11719 h -16.89453 z m 0,0"
       fill-opacity="1"
       fill-rule="nonzero"
       id="path197" />
  </g>
  <path
     fill="#c7c7c7"
     d="m 155.35308,73.738331 -3.82422,32.671869 h -20.3086 l -6.15625,-14.824219 z m 0,0"
     fill-opacity="1"
     fill-rule="nonzero"
     id="path201" />
  <g
     clip-path="url(#8d23b75b79)"
     id="g205"
     transform="translate(-31.014107,-41.734329)">
    <path
       fill="#cecece"
       d="m 186.36719,115.47266 14.51953,-17.667972 v 15.593752 z m 0,0"
       fill-opacity="1"
       fill-rule="nonzero"
       id="path203" />
  </g>
  <g
     clip-path="url(#29748699ff)"
     id="g209"
     transform="translate(-31.014107,-41.734329)">
    <path
       fill="#d3d3d3"
       d="M 200.88672,78.671875 V 97.804688 L 186.37109,115.47266 175.42187,77.195312 h 23.99219 c 0.19531,0 0.38281,0.03906 0.5625,0.113282 0.17969,0.07422 0.33985,0.179687 0.48047,0.320312 0.13672,0.136719 0.24219,0.296875 0.31641,0.480469 0.0742,0.179687 0.11328,0.367187 0.11328,0.5625 z m 0,0"
       fill-opacity="1"
       fill-rule="nonzero"
       id="path207" />
  </g>
  <path
     fill="#c6c6c6"
     d="m 131.22026,106.4102 h -10.71093 l -2.77735,-3.98437 7.33203,-10.839849 z m 0,0"
     fill-opacity="1"
     fill-rule="nonzero"
     id="path211" />
  <path
     fill="#d5d5d5"
     d="M 155.35308,73.738331 115.17339,56.753952 136.3062,35.46489 h 8.10156 z m 0,0"
     fill-opacity="1"
     fill-rule="nonzero"
     id="path213" />
  <path
     fill="#d0d0d0"
     d="m 115.17339,56.753952 9.89062,34.832029 30.29297,-17.84765 z m 0,0"
     fill-opacity="1"
     fill-rule="nonzero"
     id="path215" />
  <path
     fill="#bfbfbf"
     d="m 120.50933,106.4102 h -2.91016 l 0.13281,-3.98437 z m 0,0"
     fill-opacity="1"
     fill-rule="nonzero"
     id="path217" />
  <path
     fill="#d9d9d9"
     d="m 136.3062,35.46489 -21.13281,21.289062 -3.81641,-19.042969 8.16016,-2.246093 z m 0,0"
     fill-opacity="1"
     fill-rule="nonzero"
     id="path219" />
  <path
     fill="#d4d4d4"
     d="M 115.17339,56.753952 66.392143,68.011761 117.73198,102.42583 Z m 0,0"
     fill-opacity="1"
     fill-rule="nonzero"
     id="path221" />
  <path
     fill="#d0d0d0"
     d="m 115.17339,56.753952 2.55469,45.675778 7.33203,-10.839839 z m 0,0"
     fill-opacity="1"
     fill-rule="nonzero"
     id="path223" />
  <path
     fill="#d9d9d9"
     d="M 111.35698,37.710983 66.407768,68.000051 115.18901,56.742233 Z m 0,0"
     fill-opacity="1"
     fill-rule="nonzero"
     id="path225" />
  <path
     fill="#d8d8d8"
     d="M 66.407768,68.000051 45.267143,106.4102 H 33.224174 L 24.321831,67.355511 Z m 0,0"
     fill-opacity="1"
     fill-rule="nonzero"
     id="path227" />
  <path
     fill="#e2e2e2"
     d="M 44.735893,35.460983 24.321831,67.355511 19.122612,37.386765 19.853081,36.12114 c 0,0 0,-0.02344 0,-0.02344 0.261718,-0.421875 0.640624,-0.636719 1.136718,-0.636719 z m 0,0"
     fill-opacity="1"
     fill-rule="nonzero"
     id="path229" />
  <path
     fill="#d8d8d8"
     d="M 33.224174,106.41411 H 20.989799 c -0.511718,-0.004 -0.890625,-0.23047 -1.136718,-0.67969 L 2.2983935,75.351611 24.321831,67.355511 Z m 0,0"
     fill-opacity="1"
     fill-rule="nonzero"
     id="path231" />
  <path
     fill="#e4e4e4"
     d="m 10.103081,53.019577 9.019531,-15.632812 5.199219,29.968746 z m 0,0"
     fill-opacity="1"
     fill-rule="nonzero"
     id="path233" />
  <path
     fill="#dedede"
     d="M 88.685113,35.46489 H 53.075737 L 66.407768,68.000051 111.35698,37.710983 97.810113,35.46489 Z m 0,0"
     fill-opacity="1"
     fill-rule="nonzero"
     id="path235" />
  <path
     fill="#dedede"
     d="m 47.517143,35.46489 h -2.78125 L 24.321831,67.355511 66.407768,68.000051 53.075737,35.46489 Z m 0,0"
     fill-opacity="1"
     fill-rule="nonzero"
     id="path237" />
  <path
     fill="#c5c5c5"
     d="m 107.94292,106.4102 h 9.65625 l 0.13281,-3.98437 z m 0,0"
     fill-opacity="1"
     fill-rule="nonzero"
     id="path239" />
  <path
     fill="#d0d0d0"
     d="M 117.73198,102.42583 66.407768,68.000051 75.653863,106.4102 h 32.289057 z m 0,0"
     fill-opacity="1"
     fill-rule="nonzero"
     id="path241" />
  <path
     fill="#d1d1d1"
     d="m 45.267143,106.4102 h 30.38672 L 66.407768,68.000051 Z m 0,0"
     fill-opacity="1"
     fill-rule="nonzero"
     id="path243" />
  <path
     fill="#dddddd"
     d="m 111.49761,35.46489 -0.14063,2.246093 8.16016,-2.246093 z m 0,0"
     fill-opacity="1"
     fill-rule="nonzero"
     id="path245" />
  <path
     fill="#e3e3e3"
     d="m 97.810113,35.46489 13.546867,2.246093 -1.24609,-2.246093 z m 0,0"
     fill-opacity="1"
     fill-rule="nonzero"
     id="path247" />
  <path
     fill="#e2e2e2"
     d="m 110.11089,35.46489 1.24609,2.246093 0.14063,-2.246093 z m 0,0"
     fill-opacity="1"
     fill-rule="nonzero"
     id="path249" />
  <path
     fill="#00b8e3"
     d="m 74.485893,36.078171 -19.835938,34.33594 c -0.09766,0.17187 -0.144531,0.35937 -0.144531,0.55859 H 40.689018 L 67.888237,23.835983 c 0.171875,0.09375 0.308594,0.222657 0.40625,0.390626 l 0.03906,0.03906 6.167974,10.714844 c 0.18359,0.367187 0.17968,0.734375 -0.0156,1.097656 z m 0,0"
     fill-opacity="1"
     fill-rule="nonzero"
     id="path251" />
  <path
     fill="#33c6e9"
     d="m 74.462453,107.05864 -6.140621,10.66797 c -0.105469,0.16406 -0.246094,0.29687 -0.417969,0.39453 L 40.661674,70.984421 h 13.851563 c -0.0039,0.19141 0.03906,0.37109 0.128906,0.53906 0.0039,0.0195 0.01172,0.0391 0.02344,0.0547 l 19.785152,34.312499 c 0.23047,0.38672 0.23438,0.77734 0.0117,1.16797 z m 0,0"
     fill-opacity="1"
     fill-rule="nonzero"
     id="path253" />
  <path
     fill="#008aaa"
     d="m 67.888237,23.835983 -27.199219,47.136718 -6.824219,11.82422 -6.515625,-11.30078 c -0.08984,-0.16406 -0.132812,-0.34375 -0.128906,-0.53516 0,-0.19922 0.04687,-0.38281 0.144531,-0.55859 l 6.582032,-11.40234 20.039062,-34.707036 c 0.226562,-0.402344 0.566406,-0.601563 1.023438,-0.597656 h 12.296874 c 0.207032,-0.0039 0.398438,0.04297 0.582032,0.140624 z m 0,0"
     fill-opacity="1"
     fill-rule="nonzero"
     id="path255" />
  <path
     fill="#00b8e3"
     d="m 67.888237,118.12114 c -0.179688,0.0977 -0.375,0.14844 -0.582032,0.15234 H 54.989799 c -0.457031,0.004 -0.800781,-0.19531 -1.023437,-0.59765 l -18.324219,-31.722659 -1.800781,-3.14844 6.820312,-11.82031 z m 0,0"
     fill-opacity="1"
     fill-rule="nonzero"
     id="path257" />
  <path
     fill="#008aaa"
     d="M 122.59917,70.972701 95.376523,118.12114 c -0.16407,-0.10156 -0.30079,-0.23047 -0.40625,-0.39453 l -0.0234,-0.0352 -6.1836,-10.6875 c -0.1914,-0.36719 -0.1914,-0.73437 0,-1.10156 L 108.56796,71.570321 c 0.11328,-0.1836 0.16797,-0.38281 0.16797,-0.59766 z m 0,0"
     fill-opacity="1"
     fill-rule="nonzero"
     id="path259" />
  <path
     fill="#00b8e3"
     d="m 136.06792,70.972701 c 0,0.21485 -0.0547,0.41406 -0.16406,0.59766 l -26.65235,46.156249 c -0.23046,0.36718 -0.55859,0.55078 -0.99218,0.55078 H 95.981984 c -0.21484,-0.004 -0.41406,-0.0547 -0.597651,-0.15625 l 27.214837,-47.148439 6.82031,-11.80859 6.48438,11.22656 c 0.10937,0.17578 0.16406,0.37109 0.16406,0.58203 z m 0,0"
     fill-opacity="1"
     fill-rule="nonzero"
     id="path261" />
  <path
     fill="#00b8e3"
     d="m 122.59917,70.972701 h -13.83594 c -0.004,-0.21094 -0.0586,-0.40625 -0.16797,-0.58203 L 88.810113,36.08989 c -0.23047,-0.394531 -0.23047,-0.789063 0,-1.179688 l 6.16797,-10.679687 c 0.10547,-0.160156 0.24219,-0.292969 0.40625,-0.390625 z m 0,0"
     fill-opacity="1"
     fill-rule="nonzero"
     id="path263" />
  <path
     fill="#33c6e9"
     d="m 129.42339,59.148481 -6.82031,11.8086 -27.226557,-47.121098 c 0.1875,-0.101562 0.38671,-0.152343 0.59765,-0.152343 h 12.281247 c 0.42969,0 0.76172,0.183593 0.98828,0.546875 z m 0,0"
     fill-opacity="1"
     fill-rule="nonzero"
     id="path265" />
</svg>
