<?xml version="1.0" encoding="UTF-8" standalone="no"?>
<svg
   height="529.58636"
   width="529.60431"
   viewBox="-11.493675 -16.3118 43.962387 64.788802"
   version="1.1"
   id="svg555"
   sodipodi:docname="linkedin.svg"
   inkscape:version="1.1.2 (0a00cf5339, 2022-02-04)"
   xmlns:inkscape="http://www.inkscape.org/namespaces/inkscape"
   xmlns:sodipodi="http://sodipodi.sourceforge.net/DTD/sodipodi-0.dtd"
   xmlns="http://www.w3.org/2000/svg"
   xmlns:svg="http://www.w3.org/2000/svg">
  <defs
     id="defs559" />
  <sodipodi:namedview
     id="namedview557"
     pagecolor="#ffffff"
     bordercolor="#666666"
     borderopacity="1.0"
     inkscape:pageshadow="2"
     inkscape:pageopacity="0.0"
     inkscape:pagecheckerboard="0"
     showgrid="false"
     inkscape:zoom="1.39"
     inkscape:cx="341.72662"
     inkscape:cy="266.18705"
     inkscape:current-layer="svg555" />
  <path
     fill="#0a66c2"
     d="m 33.29702,38.892621 h -9.6 v -15.034 c 0,-3.585 -0.064,-8.2 -4.993,-8.2 -5,0 -5.765,3.906 -5.765,7.939 v 15.294 H 3.3390195 V 7.9756202 H 12.55502 v 4.2250008 h 0.129 c 1.879194,-3.2130477 5.373325,-5.1320721 9.093,-4.9940008 9.73,0 11.524,6.4000008 11.524,14.7260008 z M -7.4929805,3.7496202 c -4.9635755,8.909e-4 -7.4495215,-5.9994018 -3.9407985,-9.5093845 3.5087225,-3.5099828 9.5099075,-1.0261915 9.5107985,3.9373845 5.52e-4,3.0767784 -2.493222,5.5714478 -5.57,5.572 m 4.8,35.1430008 H -12.30298 V 7.9756202 h 9.6099995 z m 40.7760005,-55.2 h -55.21 c -2.609339,-0.02945 -4.749154,2.06069 -4.781,4.67 v 55.439 c 0.03076,2.610568 2.170399,4.702773 4.781,4.675 h 55.21 c 2.615766,0.0328 4.763788,-2.059279 4.8,-4.675 v -55.443 c -0.0373,-2.614465 -2.185496,-4.704482 -4.8,-4.67"
     id="path551"
     sodipodi:nodetypes="ccsssccccccccccssccccccccccccccc" />
</svg>
